<?xml version="1.0" encoding="iso-8859-1"?>
<!-- Generator: Adobe Illustrator 19.0.0, SVG Export Plug-In . SVG Version: 6.00 Build 0)  -->
<svg version="1.1" id="Layer_1" xmlns="http://www.w3.org/2000/svg" xmlns:xlink="http://www.w3.org/1999/xlink" x="0px" y="0px"
	 viewBox="0 0 503.467 503.467" style="enable-background:new 0 0 503.467 503.467;" xml:space="preserve">
<g transform="translate(1 1)">
	<path style="fill:#ECF4F7;" d="M498.2,88.173V463.64c0,19.627-14.507,34.133-34.133,34.133H395.8l-25.6-34.133
		c9.387-11.093,17.067-27.307,20.48-40.107c13.653-2.56,27.307-5.973,30.72-6.827c5.973-0.853,8.533-6.827,8.533-12.8v-34.133
		c0-5.973-2.56-11.093-8.533-12.8c-3.413-0.853-17.067-3.413-30.72-6.827c-3.413-12.8-8.533-25.6-15.36-36.693
		C383,301.507,390.68,289.56,392.387,287c3.413-5.12,1.707-10.24-3.413-15.36c-4.267-4.267-19.627-19.627-23.893-23.893
		s-9.387-6.827-15.36-3.413c-2.56,1.707-14.507,9.387-26.453,17.067c-11.093-6.827-23.893-11.947-37.547-15.36
		c-2.56-13.653-5.973-27.307-6.827-30.72c-0.853-5.973-6.827-8.533-12.8-8.533H231.96c-5.973,0-11.093,2.56-12.8,8.533
		c-0.853,3.413-3.413,17.067-6.827,30.72c-13.653,3.413-25.6,8.533-37.547,15.36c-11.947-7.68-23.893-15.36-26.453-17.067
		c-5.12-3.413-10.24-1.707-15.36,3.413c-5.12,5.12-19.627,19.627-23.893,23.893s-6.827,9.387-3.413,15.36
		c1.707,2.56,9.387,14.507,17.067,26.453c-6.827,11.093-11.947,23.893-15.36,36.693c-13.653,2.56-27.307,5.973-30.72,6.827
		c-5.973,0.853-8.533,6.827-8.533,12.8v34.133c0,5.973,2.56,11.093,8.533,12.8c3.413,0.853,17.067,3.413,30.72,6.827
		c3.413,12.8,11.093,29.867,20.48,40.107l-25.6,34.133H33.987c-19.627,0-34.133-15.36-34.133-34.133V88.173H498.2z M250.734,310.04
		c42.667,0,76.8,34.133,76.8,76.8s-34.133,76.8-76.8,76.8s-76.8-34.133-76.8-76.8S208.067,310.04,250.734,310.04z"/>
	<path style="fill:#FFE079;" d="M250.734,361.24c14.507,0,25.6,11.093,25.6,25.6s-11.093,25.6-25.6,25.6
		c-14.507,0-25.6-11.093-25.6-25.6S236.227,361.24,250.734,361.24"/>
	<path style="fill:#80D6FA;" d="M327.534,386.84c0-42.667-34.133-76.8-76.8-76.8s-76.8,34.133-76.8,76.8s34.133,76.8,76.8,76.8
		S327.534,429.507,327.534,386.84 M429.934,369.773v34.133c0,6.827-2.56,11.947-8.533,12.8c-2.56,0.853-17.067,3.413-30.72,6.827
		c-3.413,12.8-11.093,29.013-20.48,40.107l25.6,34.133H105.667l25.6-34.133c-9.387-11.093-17.067-27.307-20.48-40.107
		c-13.653-2.56-27.307-5.973-30.72-6.827c-5.973-1.707-8.533-6.827-8.533-12.8v-34.133c0-6.827,2.56-11.947,8.533-12.8
		c2.56-0.853,17.067-3.413,30.72-6.827c3.413-12.8,8.533-25.6,15.36-36.693c-7.68-11.947-15.36-23.893-17.067-26.453
		c-3.413-5.12-1.707-11.093,3.413-15.36c4.267-4.267,19.627-19.627,23.893-23.893c4.267-4.267,10.24-6.827,15.36-3.413
		c2.56,1.707,14.507,9.387,26.453,17.067c11.093-6.827,23.893-11.947,37.547-15.36c2.56-13.653,5.973-27.307,6.827-30.72
		c1.707-5.973,6.827-8.533,12.8-8.533h34.133c6.827,0,11.947,2.56,12.8,8.533c0.853,2.56,3.413,17.067,6.827,30.72
		c13.653,3.413,25.6,8.533,37.547,15.36c11.947-7.68,23.893-15.36,26.453-17.067c5.12-3.413,11.093-1.707,15.36,3.413
		c4.267,4.267,19.627,19.627,23.893,23.893s6.827,10.24,3.413,15.36c-1.707,2.56-9.387,14.507-17.067,26.453
		c6.827,11.093,11.947,23.893,15.36,36.693c13.653,2.56,27.307,5.973,30.72,6.827C427.374,358.68,429.934,363.8,429.934,369.773"/>
	<path style="fill:#AAB1BA;" d="M498.2,36.973v51.2H3.267v-51.2C3.267,18.2,18.627,2.84,37.4,2.84h426.667
		C482.84,2.84,498.2,18.2,498.2,36.973"/>
	<path style="fill:#50DD8E;" d="M165.4,36.973c5.12,0,8.533,4.267,8.533,8.533s-3.413,8.533-8.533,8.533
		c-4.267,0-8.533-4.267-8.533-8.533S161.134,36.973,165.4,36.973L165.4,36.973z"/>
	<path style="fill:#FFE079;" d="M114.2,36.973c4.267,0,8.533,4.267,8.533,8.533s-4.267,8.533-8.533,8.533
		c-4.267,0-8.533-4.267-8.533-8.533S109.934,36.973,114.2,36.973"/>
	<path style="fill:#FF7474;" d="M63,36.973c4.267,0,8.533,4.267,8.533,8.533S67.267,54.04,63,54.04s-8.533-4.267-8.533-8.533
		S58.734,36.973,63,36.973"/>
</g>
<path style="fill:#51565F;" d="M465.067,503.04H396.8c-1.707,0-2.56-0.853-3.413-1.707l-25.6-34.133
	c-0.853-1.707-0.853-4.267,0-5.12c8.533-9.387,16.213-24.747,19.627-38.4c0-1.707,1.707-2.56,3.413-3.413
	c13.653-2.56,27.307-5.973,30.72-6.827c0.853,0,5.12-0.853,5.12-8.533c0-6.827,0-28.16,0-34.133c0-7.68-3.413-8.533-5.12-8.533
	l-30.72-6.827c-1.707,0-2.56-1.707-3.413-3.413c-3.413-12.8-8.533-24.747-14.507-35.84c-0.853-1.707-0.853-3.413,0-4.267
	c7.68-11.947,15.36-23.893,17.067-26.453c0.853-0.853,2.56-4.267-2.56-9.387L363.52,252.16c-5.12-5.12-8.533-3.413-9.387-2.56
	l-26.453,17.067c-1.707,0.853-3.413,0.853-4.267,0c-11.093-6.827-23.04-11.947-35.84-14.507c-1.707,0-2.56-1.707-3.413-3.413
	c-2.56-13.653-5.973-27.307-6.827-30.72c0-0.853-0.853-5.12-8.533-5.12h-34.133c-7.68,0-8.533,3.413-8.533,5.12l-6.827,30.72
	c0,1.707-1.707,2.56-3.413,3.413c-12.8,3.413-24.747,8.533-35.84,14.507c-1.707,0.853-3.413,0.853-4.267,0
	c-11.947-7.68-23.893-15.36-26.453-17.067c-0.853-0.853-4.267-2.56-9.387,2.56l-23.893,23.893c-5.12,5.12-3.413,8.533-2.56,9.387
	l17.067,26.453c0.853,1.707,0.853,3.413,0,4.267c-6.827,11.093-11.947,23.04-14.507,35.84c0,1.707-1.707,2.56-3.413,3.413
	c-13.653,2.56-27.307,5.973-30.72,6.827c-0.853,0-5.12,0.853-5.12,8.533v34.133c0,7.68,3.413,8.533,5.12,8.533l30.72,6.827
	c1.707,0,2.56,1.707,3.413,3.413c3.413,11.947,10.24,28.16,19.627,38.4c1.707,1.707,1.707,4.267,0,5.973
	c-1.707,1.707-4.267,1.707-5.973,0c-8.533-9.387-17.067-24.747-21.333-39.253l-28.16-5.973c-7.68-1.707-11.947-7.68-11.947-17.067
	v-34.133c0-9.387,4.267-15.36,11.947-17.067c2.56-0.853,15.36-3.413,28.16-5.973c3.413-11.947,7.68-23.04,13.653-33.28
	l-15.36-23.893c-4.267-6.827-2.56-13.653,3.413-20.48l23.893-23.893c6.827-6.827,13.653-7.68,20.48-3.413
	c2.56,1.707,12.8,8.533,23.893,15.36c10.24-5.973,21.333-10.24,33.28-13.653l5.973-28.16c1.707-7.68,7.68-11.947,17.067-11.947
	H268.8c9.387,0,15.36,4.267,17.067,11.947c0.853,2.56,3.413,15.36,5.973,28.16c11.947,3.413,23.04,7.68,33.28,13.653l23.893-15.36
	c6.827-4.267,13.653-2.56,20.48,3.413l23.893,23.893c6.827,6.827,7.68,13.653,3.413,20.48c-1.707,2.56-8.533,12.8-15.36,23.893
	c5.973,10.24,10.24,21.333,13.653,33.28l28.16,5.973c7.68,1.707,11.947,7.68,11.947,17.067c0,5.973,0,28.16,0,34.133
	c0,9.387-4.267,15.36-11.947,17.067c-2.56,0.853-15.36,3.413-28.16,5.973c-3.413,11.093-9.387,25.6-18.773,36.693l22.187,29.867
	h66.56c17.067,0,29.867-12.8,29.867-29.867V38.827c0-16.213-13.653-29.867-29.867-29.867H38.4
	c-16.213,0-29.867,13.653-29.867,29.867V85.76h456.533c2.56,0,4.267,1.707,4.267,4.267c0,2.56-1.707,4.267-4.267,4.267H4.267
	C1.707,94.293,0,92.586,0,90.027v-51.2c0-21.333,17.067-38.4,38.4-38.4h426.667c21.333,0,38.4,17.067,38.4,38.4v426.667
	C503.467,486.827,487.254,503.04,465.067,503.04z M354.134,503.04H38.4c-22.187,0-38.4-16.213-38.4-38.4V123.307
	c0-2.56,1.707-4.267,4.267-4.267s4.267,1.707,4.267,4.267V464.64c0,17.067,12.8,29.867,29.867,29.867h315.733
	c2.56,0,4.267,1.707,4.267,4.267S356.694,503.04,354.134,503.04z M251.734,468.907c-44.373,0-81.067-36.693-81.067-81.067
	s36.693-81.067,81.067-81.067S332.8,343.467,332.8,387.84S296.107,468.907,251.734,468.907z M251.734,315.307
	c-40.107,0-72.533,32.427-72.533,72.533s32.427,72.533,72.533,72.533s72.533-32.427,72.533-72.533S291.84,315.307,251.734,315.307z
	 M251.734,417.707c-16.213,0-29.867-13.653-29.867-29.867s13.653-29.867,29.867-29.867S281.6,371.627,281.6,387.84
	S267.947,417.707,251.734,417.707z M251.734,366.507c-11.947,0-21.333,9.387-21.333,21.333c0,11.947,9.387,21.333,21.333,21.333
	s21.333-9.387,21.333-21.333C273.067,375.894,263.68,366.507,251.734,366.507z M448,144.64h-34.133c-2.56,0-4.267-1.707-4.267-4.267
	s1.707-4.267,4.267-4.267H448c2.56,0,4.267,1.707,4.267,4.267S450.56,144.64,448,144.64z M379.734,144.64H345.6
	c-2.56,0-4.267-1.707-4.267-4.267s1.707-4.267,4.267-4.267h34.133c2.56,0,4.267,1.707,4.267,4.267S382.294,144.64,379.734,144.64z
	 M311.467,144.64h-34.133c-2.56,0-4.267-1.707-4.267-4.267s1.707-4.267,4.267-4.267h34.133c2.56,0,4.267,1.707,4.267,4.267
	S314.027,144.64,311.467,144.64z M123.734,144.64H55.467c-2.56,0-4.267-1.707-4.267-4.267s1.707-4.267,4.267-4.267h68.267
	c2.56,0,4.267,1.707,4.267,4.267S126.293,144.64,123.734,144.64z M166.4,59.307c-6.827,0-12.8-5.973-12.8-12.8s5.973-12.8,12.8-12.8
	s12.8,5.973,12.8,12.8S173.227,59.307,166.4,59.307z M166.4,42.24c-2.56,0-4.267,1.707-4.267,4.267c0,2.56,1.707,4.267,4.267,4.267
	s4.267-1.707,4.267-4.267C170.667,43.947,168.96,42.24,166.4,42.24z M115.2,59.307c-6.827,0-12.8-5.973-12.8-12.8
	s5.973-12.8,12.8-12.8c6.827,0,12.8,5.973,12.8,12.8S122.027,59.307,115.2,59.307z M115.2,42.24c-2.56,0-4.267,1.707-4.267,4.267
	c0,2.56,1.707,4.267,4.267,4.267c2.56,0,4.267-1.707,4.267-4.267C119.467,43.947,117.76,42.24,115.2,42.24z M64,59.307
	c-6.827,0-12.8-5.973-12.8-12.8s5.973-12.8,12.8-12.8s12.8,5.973,12.8,12.8S70.827,59.307,64,59.307z M64,42.24
	c-2.56,0-4.267,1.707-4.267,4.267c0,2.56,1.707,4.267,4.267,4.267c2.56,0,4.267-1.707,4.267-4.267
	C68.267,43.947,66.56,42.24,64,42.24z"/>
<g>
</g>
<g>
</g>
<g>
</g>
<g>
</g>
<g>
</g>
<g>
</g>
<g>
</g>
<g>
</g>
<g>
</g>
<g>
</g>
<g>
</g>
<g>
</g>
<g>
</g>
<g>
</g>
<g>
</g>
</svg>
