<svg id="Capa_1" enable-background="new 0 0 512 512" height="512" viewBox="0 0 512 512" width="512" xmlns="http://www.w3.org/2000/svg"><path d="m136.5 44.519h239c11.046 0 20 8.954 20 20v159c0 11.046-8.954 20-20 20h-53v54l-86.261-54h-99.739c-11.046 0-20-8.954-20-20v-159c0-11.046 8.954-20 20-20z" fill="#ffd396"/><path d="m375.5 44.519h-119.5v211.37l66.5 41.63v-54h53c11.046 0 20-8.954 20-20v-159c0-11.046-8.954-20-20-20z" fill="#ffb554"/><path d="m259 213.519h-239c-11.046 0-20 8.954-20 20v159c0 11.046 8.954 20 20 20h53v44.944c0 8.251 9.429 12.952 16.018 7.986l70.243-52.93h99.739c11.046 0 20-8.954 20-20v-159c0-11.046-8.954-20-20-20z" fill="#86beec"/><path d="m253 134.519h239c11.046 0 20 8.954 20 20v159c0 11.046-8.954 20-20 20h-53v44.944c0 8.251-9.429 12.952-16.018 7.986l-70.243-52.93h-99.739c-11.046 0-20-8.954-20-20v-159c0-11.046 8.954-20 20-20z" fill="#00ddc1"/><path d="m259 213.519h-119.5v213.89l19.761-14.89h99.739c11.046 0 20-8.954 20-20v-159c0-11.046-8.954-20-20-20z" fill="#2681ff"/><path d="m492 134.519h-119.5v213.89l50.482 38.04c6.589 4.965 16.018.264 16.018-7.986v-44.943h53c11.046 0 20-8.954 20-20v-159c0-11.047-8.954-20.001-20-20.001z" fill="#00b4bc"/></svg>