<svg height="512" viewBox="0 0 512 512" width="512" xmlns="http://www.w3.org/2000/svg" xmlns:xlink="http://www.w3.org/1999/xlink"><linearGradient id="a" gradientUnits="userSpaceOnUse" x1="20.721" x2="499.536" y1="491.279" y2="12.464" data-name="New Gradient Swatch 1"><stop offset="0" stop-color="#003f8a"/><stop offset=".518" stop-color="#00d7df"/><stop offset="1" stop-color="#006df0"/></linearGradient><linearGradient id="b" x1="-169.279" x2="309.536" xlink:href="#a" y1="301.279" y2="-177.536"/><linearGradient id="c" x1="-153.279" x2="325.536" xlink:href="#a" y1="317.279" y2="-161.536"/><linearGradient id="d" x1="-137.279" x2="341.536" xlink:href="#a" y1="333.279" y2="-145.536"/><g><path d="m476 56h-440a28.031 28.031 0 0 0 -28 28v344a28.031 28.031 0 0 0 28 28h140v40a8 8 0 0 0 8 8h48a8 8 0 0 0 8-8v-40h64v40a8 8 0 0 0 8 8h48a8 8 0 0 0 8-8v-40h108a28.031 28.031 0 0 0 28-28v-344a28.031 28.031 0 0 0 -28-28zm-252 432h-32v-120h32zm-24-136v-32h16v32zm8-50a64.072 64.072 0 0 1 -64-64 63.266 63.266 0 0 1 14.2-40.2 64.476 64.476 0 0 1 25.8-19.14v59.34a24 24 0 0 0 48 0v-59.34a64.476 64.476 0 0 1 25.8 19.14 63.266 63.266 0 0 1 14.2 40.2 64.072 64.072 0 0 1 -64 64zm144 186h-32v-120h32zm-24-136v-40h16v40zm160 76a12.01 12.01 0 0 1 -12 12h-108v-80a8 8 0 0 0 -8-8v-48a8 8 0 0 0 -8-8h-8v-40h16a7.988 7.988 0 0 0 7.86-9.47l-9-48a8 8 0 0 0 -7.86-6.53h-31a8 8 0 0 0 -7.89 6.68l-8 48a8.007 8.007 0 0 0 7.89 9.32h16v40h-8a8 8 0 0 0 -8 8v48a8 8 0 0 0 -8 8v80h-64v-80a8 8 0 0 0 -8-8v-37.68a80.019 80.019 0 0 0 -6.23-154.34 8 8 0 0 0 -9.77 7.8v70.22a8 8 0 0 1 -16 0v-70.22a8 8 0 0 0 -9.77-7.8 80.015 80.015 0 0 0 -6.23 154.34v37.68a8 8 0 0 0 -8 8v80h-140a12.01 12.01 0 0 1 -12-12v-308h464zm-166.56-188 5.34-32h17.58l6 32zm166.56-136h-464v-20a12.01 12.01 0 0 1 12-12h440a12.01 12.01 0 0 1 12 12z" fill="url(#a)"/><path d="m40 96h8a8 8 0 0 0 0-16h-8a8 8 0 0 0 0 16z" fill="url(#b)"/><path d="m72 96h8a8 8 0 0 0 0-16h-8a8 8 0 0 0 0 16z" fill="url(#c)"/><path d="m104 96h8a8 8 0 0 0 0-16h-8a8 8 0 0 0 0 16z" fill="url(#d)"/></g></svg>