<svg id="Capa_1" enable-background="new 0 0 512 512" height="512" viewBox="0 0 512 512" width="512" xmlns="http://www.w3.org/2000/svg"><g><g><g><g><path d="m7.5 353.888v-285.113c0-11.046 8.954-20 20-20h457c11.046 0 20 8.954 20 20v285.113c0 11.046-8.954 20-20 20h-457c-11.046 0-20-8.954-20-20z" fill="#fbfbfb"/></g></g></g><g><g><g><path d="m484.5 48.775h-30c11.046 0 20 8.954 20 20v285.113c0 11.046-8.954 20-20 20h30c11.046 0 20-8.954 20-20v-285.113c0-11.046-8.954-20-20-20z" fill="#e6e6e6"/></g></g></g><g><g><g><path d="m314.76 427.221h-117.52l10-53.333h97.52z" fill="#968d97"/></g></g></g><g><g><g><path d="m346.274 427.221h-180.548c-12.885 0-23.331 10.446-23.331 23.331v12.673h227.211v-12.673c-.001-12.886-10.446-23.331-23.332-23.331z" fill="#d4cfd5"/></g></g></g><g><g><g><path d="m7.5 316.643v37.245c0 11.046 8.954 20 20 20h457c11.046 0 20-8.954 20-20v-37.245z" fill="#d4cfd5"/></g></g></g><g><g><g><path d="m304.76 373.888h-30l10 53.333h30z" fill="#877f87"/></g></g></g><g><g><g><path d="m346.274 427.221h-30c12.885 0 23.331 10.446 23.331 23.331v12.673h30v-12.673c0-12.885-10.445-23.331-23.331-23.331z" fill="#c5bec6"/></g></g></g><g><g><g><path d="m474.5 316.643v37.245c0 11.046-8.954 20-20 20h30c11.046 0 20-8.954 20-20v-37.245z" fill="#c5bec6"/></g></g></g><g><g><g><circle cx="256" cy="179.338" fill="#d3fae3" r="95.828"/></g></g></g><g><g><g><path d="m256 83.51c-5.104 0-10.112.403-15 1.172 45.798 7.2 80.828 46.836 80.828 94.657s-35.03 87.457-80.828 94.657c4.888.769 9.896 1.172 15 1.172 52.924 0 95.828-42.904 95.828-95.828s-42.903-95.83-95.828-95.83z" fill="#b1f8d3"/></g></g></g><g><circle cx="256" cy="344.733" r="7.5"/><path d="m484.5 41.275h-350.901c-4.142 0-7.5 3.358-7.5 7.5s3.358 7.5 7.5 7.5h350.901c6.893 0 12.5 5.607 12.5 12.5v240.367h-97.396c-4.143 0-7.5 3.358-7.5 7.5s3.357 7.5 7.5 7.5h97.396v29.746c0 6.893-5.607 12.5-12.5 12.5h-457c-6.893 0-12.5-5.607-12.5-12.5v-29.746h354.605c4.143 0 7.5-3.358 7.5-7.5s-3.357-7.5-7.5-7.5h-354.605v-240.367c0-6.893 5.607-12.5 12.5-12.5h76.099c4.142 0 7.5-3.358 7.5-7.5s-3.358-7.5-7.5-7.5h-76.099c-15.164 0-27.5 12.336-27.5 27.5v285.113c0 15.164 12.336 27.5 27.5 27.5h170.703l-7.187 38.333h-25.29c-17 0-30.831 13.831-30.831 30.831v5.173h-36.391c-4.142 0-7.5 3.358-7.5 7.5s3.358 7.5 7.5 7.5h314.991c4.143 0 7.5-3.358 7.5-7.5s-3.357-7.5-7.5-7.5h-36.391v-5.173c0-17-13.831-30.831-30.831-30.831h-25.29l-7.187-38.333h170.704c15.164 0 27.5-12.336 27.5-27.5v-285.113c0-15.163-12.335-27.5-27.5-27.5zm-122.395 409.277v5.173h-212.21v-5.173c0-8.729 7.102-15.831 15.831-15.831h180.548c8.729 0 15.831 7.101 15.831 15.831zm-56.382-30.831h-99.446l7.187-38.333h85.072z"/><path d="m359.329 179.338c0-56.975-46.353-103.328-103.328-103.328s-103.329 46.353-103.329 103.328 46.353 103.329 103.328 103.329 103.329-46.354 103.329-103.329zm-191.657 0c0-48.704 39.624-88.328 88.329-88.328 48.704 0 88.328 39.624 88.328 88.328s-39.624 88.329-88.329 88.329c-48.704 0-88.328-39.625-88.328-88.329z"/><path d="m256 230.468c11.103 0 21.664-3.5 30.543-10.122 3.32-2.477 4.004-7.176 1.527-10.496s-7.174-4.004-10.496-1.528c-6.268 4.675-13.728 7.146-21.574 7.146-16.818 0-30.988-11.551-34.996-27.136l4.407 4.407c1.464 1.464 3.384 2.197 5.303 2.197s3.839-.732 5.303-2.197c2.929-2.929 2.929-7.678 0-10.606l-17.749-17.749c-2.929-2.929-7.678-2.929-10.606 0l-17.749 17.749c-2.929 2.929-2.929 7.678 0 10.606 2.929 2.929 7.678 2.929 10.606 0l5.045-5.045c4.002 24.231 25.089 42.774 50.436 42.774z"/><path d="m234.093 150.605c6.334-4.839 13.91-7.396 21.907-7.396 16.818 0 30.989 11.551 34.996 27.136l-4.407-4.407c-2.93-2.929-7.678-2.929-10.607 0s-2.929 7.677 0 10.606l17.749 17.75c1.407 1.407 3.314 2.197 5.304 2.197s3.896-.79 5.304-2.197l17.749-17.75c2.929-2.929 2.929-7.678 0-10.606-2.93-2.929-7.678-2.929-10.607 0l-5.044 5.044c-4.002-24.23-25.089-42.773-50.436-42.773-11.316 0-22.041 3.623-31.013 10.477-3.292 2.514-3.922 7.221-1.407 10.513 2.514 3.291 7.221 3.92 10.512 1.406z"/></g></g></svg>