<?xml version="1.0" encoding="utf-8"?>
<!-- Generator: Adobe Illustrator 21.0.0, SVG Export Plug-In . SVG Version: 6.00 Build 0)  -->
<svg version="1.1" id="Layer_1" xmlns="http://www.w3.org/2000/svg" xmlns:xlink="http://www.w3.org/1999/xlink" x="0px" y="0px"
	 viewBox="0 0 55 53.8" style="enable-background:new 0 0 55 53.8;" xml:space="preserve">
<style type="text/css">
	.st0{fill:none;stroke:#000000;stroke-width:2;stroke-linecap:round;stroke-linejoin:round;stroke-miterlimit:10;}
	.st1{fill:#FFFFFF;stroke:#2F2F90;stroke-width:2;stroke-miterlimit:10;}
	.st2{fill:#E9EAEB;stroke:#2F2F90;stroke-width:2;stroke-miterlimit:10;}
	.st3{fill:#FFFFFF;}
	.st4{fill:none;stroke:#2F2F90;stroke-width:2;stroke-miterlimit:10;}
	.st5{fill:#68C4EE;stroke:#2F2F90;stroke-width:2;stroke-miterlimit:10;}
	.st6{fill:none;stroke:#BCC0C4;stroke-width:2;stroke-miterlimit:10;}
	.st7{fill:#E9EAEB;}
	.st8{fill:#68C4EE;}
	.st9{fill:none;stroke:#2F2F90;stroke-width:2;stroke-linejoin:round;stroke-miterlimit:10;}
	.st10{fill:#FFFFFF;stroke:#2F2F90;stroke-width:2;stroke-linejoin:round;stroke-miterlimit:10;}
	.st11{fill:#E9EAEB;stroke:#2F2F90;stroke-width:2;stroke-linejoin:round;stroke-miterlimit:10;}
	.st12{fill:none;}
	.st13{fill:#2F2F90;}
	.st14{fill:none;stroke:#2F2F90;stroke-width:2;stroke-linecap:round;stroke-linejoin:round;stroke-miterlimit:10;}
	.st15{fill:none;stroke:#2F2F90;stroke-width:2;stroke-linecap:round;stroke-miterlimit:10;}
	.st16{fill:#68C4EE;stroke:#2F2F90;stroke-width:2;stroke-linecap:round;stroke-miterlimit:10;}
	.st17{fill:none;stroke:#000000;stroke-width:3;stroke-miterlimit:10;}
</style>
<g>
	<g>
		<path class="st8" d="M41.2,43.9c-0.4-1.6-1-3.2-1.9-4.5l3.1-3.1L38.1,32L35,35.1c-1.4-0.9-2.9-1.5-4.5-1.9v-4.3h-6v4.3
			c-1.6,0.4-3.2,1-4.5,1.9L16.9,32l-4.2,4.2l3.1,3.1c-0.9,1.4-1.5,2.9-1.9,4.5H9.5v3h14c0-2.2,1.8-4,4-4c2.2,0,4,1.8,4,4h14v-3H41.2
			z"/>
		<path class="st4" d="M45.5,46.9v-3h-4.3c-0.4-1.6-1-3.2-1.9-4.5l3.1-3.1L38.1,32L35,35.1c-1.4-0.9-2.9-1.5-4.5-1.9v-4.3h-6v4.3
			c-1.6,0.4-3.2,1-4.5,1.9L16.9,32l-4.2,4.2l3.1,3.1c-0.9,1.4-1.5,2.9-1.9,4.5H9.5v3"/>
		<path class="st4" d="M18.5,46.9c0-5,4-9,9-9c5,0,9,4,9,9"/>
		<path class="st4" d="M23.5,46.9c0-2.2,1.8-4,4-4c2.2,0,4,1.8,4,4"/>
	</g>
	<polygon class="st4" points="49.1,24.4 49.1,18.3 5.9,18.3 5.9,47.8 49.1,47.8 49.1,38 	"/>
	<polygon class="st9" points="54,52.8 1,52.8 1,1 54,1 54,24.4 	"/>
	<line class="st9" x1="1" y1="8.4" x2="54" y2="8.4"/>
	<line class="st9" x1="4.7" y1="4.7" x2="7.2" y2="4.7"/>
	<line class="st9" x1="9.6" y1="4.7" x2="12.1" y2="4.7"/>
	<line class="st9" x1="14.6" y1="4.7" x2="17" y2="4.7"/>
	<line class="st9" x1="4.7" y1="13.3" x2="30.6" y2="13.3"/>
</g>
</svg>
