<svg xmlns="http://www.w3.org/2000/svg" width="512" height="512" viewBox="0 0 512 512">
  <g id="growth" transform="translate(0)">
    <g id="Group_9" data-name="Group 9">
      <path id="Path_30" data-name="Path 30" d="M45.886,348.935H126.7v123.24H45.886Z" fill="#68c4ee"/>
    </g>
    <g id="Group_10" data-name="Group 10">
      <path id="Path_31" data-name="Path 31" d="M159.024,300.447h80.813V472.175H159.024Z" fill="#68c4ee"/>
    </g>
    <g id="Group_11" data-name="Group 11">
      <path id="Path_32" data-name="Path 32" d="M272.163,239.837h80.813V472.174H272.163Z" fill="#68c4ee"/>
    </g>
    <g id="Group_12" data-name="Group 12">
      <path id="Path_33" data-name="Path 33" d="M385.3,199.431h80.813V472.175H385.3Z" fill="#68c4ee"/>
    </g>
    <g id="Group_13" data-name="Group 13">
      <path id="Path_34" data-name="Path 34" d="M272.163,364.859V472.175h80.813V325.6a703.962,703.962,0,0,1-80.813,39.255Z" fill="#68c4ee"/>
    </g>
    <g id="Group_14" data-name="Group 14">
      <path id="Path_35" data-name="Path 35" d="M221.554,383.63c-21.06,7-41.965,12.963-62.53,17.929v70.616h80.813V377.3Q230.793,380.556,221.554,383.63Z" fill="#68c4ee"/>
    </g>
    <g id="Group_15" data-name="Group 15">
      <path id="Path_36" data-name="Path 36" d="M45.886,419.173v53H126.7V408.6a640.841,640.841,0,0,1-80.813,10.571Z" fill="#68c4ee"/>
    </g>
    <g id="Group_16" data-name="Group 16">
      <path id="Path_37" data-name="Path 37" d="M385.3,305.823V472.175h80.813V238.65c-21.1,23.123-48.458,45.906-80.813,67.173Z" fill="#68c4ee"/>
    </g>
    <g id="Group_17" data-name="Group 17">
      <path id="Path_38" data-name="Path 38" d="M239.837,239.837h32.325v497H239.837Z" transform="translate(744.337 232.337) rotate(90)" fill="#b7dbff"/>
    </g>
    <g id="Group_18" data-name="Group 18">
      <path id="Path_39" data-name="Path 39" d="M449.951,7.5H369.138V39.825h41.793l-84.853,84.854H259.03a16.161,16.161,0,0,0-11.914,5.241l-95.2,103.856H44.876V266.1H159.024a16.161,16.161,0,0,0,11.914-5.241L266.14,157h66.632A16.165,16.165,0,0,0,344.2,152.27l89.587-89.587v41.793h32.325V23.663A16.162,16.162,0,0,0,449.951,7.5Z" fill="#68c4ee"/>
    </g>
    <g id="Group_19" data-name="Group 19">
      <path id="Path_40" data-name="Path 40" d="M504.5,464.67H473.61V347.66a7.5,7.5,0,0,0-15,0V464.67H392.8V206.93h65.81V312.66a7.5,7.5,0,0,0,15,0V199.43a7.5,7.5,0,0,0-7.5-7.5H385.3a7.5,7.5,0,0,0-7.5,7.5V464.67H360.476V239.837a7.5,7.5,0,0,0-7.5-7.5H272.163a7.5,7.5,0,0,0-7.5,7.5V464.67H247.338V300.447a7.5,7.5,0,0,0-7.5-7.5H159.025a7.5,7.5,0,0,0-7.5,7.5V464.67H134.2V348.935a7.5,7.5,0,0,0-7.5-7.5H45.886a7.5,7.5,0,0,0-7.5,7.5V464.67H7.5a7.5,7.5,0,0,0-7.5,7.5V504.5A7.5,7.5,0,0,0,7.5,512h81a7.5,7.5,0,0,0,0-15H15V479.67H497V497H123.5a7.5,7.5,0,1,0,0,15h381a7.5,7.5,0,0,0,7.5-7.5V472.17a7.5,7.5,0,0,0-7.5-7.5ZM279.663,247.337h65.813V464.67H279.663Zm-113.139,60.61h65.813V464.67H166.524ZM53.386,356.435H119.2V464.67H53.386Z"/>
      <path id="Path_41" data-name="Path 41" d="M44.88,273.6H159.02a23.721,23.721,0,0,0,17.449-7.672L269.439,164.5H332.77a23.508,23.508,0,0,0,16.733-6.927L426.29,80.786v23.693a7.5,7.5,0,0,0,7.5,7.5h32.32a7.5,7.5,0,0,0,7.5-7.5V23.66A23.687,23.687,0,0,0,449.95,0H369.14a7.5,7.5,0,0,0-7.5,7.5V39.83a7.5,7.5,0,0,0,7.5,7.5h23.684l-69.85,69.85H259.03a23.71,23.71,0,0,0-17.438,7.671L148.611,226.28H127.93a7.5,7.5,0,0,0,0,15h23.98a7.5,7.5,0,0,0,5.528-2.432l95.211-103.861a8.674,8.674,0,0,1,6.38-2.806h67.05a7.5,7.5,0,0,0,5.3-2.2l84.85-84.85a7.5,7.5,0,0,0-5.3-12.8h-34.29V15h73.31a8.67,8.67,0,0,1,8.66,8.66V96.98h-17.32V62.68a7.5,7.5,0,0,0-12.8-5.3L338.9,146.966a8.608,8.608,0,0,1-6.127,2.534H266.14a7.5,7.5,0,0,0-5.529,2.432l-95.2,103.861a8.683,8.683,0,0,1-6.39,2.807H52.38V241.28H92.93a7.5,7.5,0,1,0,0-15H44.88a7.5,7.5,0,0,0-7.5,7.5V266.1a7.5,7.5,0,0,0,7.5,7.5Z"/>
    </g>
  </g>
</svg>
