<?xml version="1.0" encoding="utf-8"?>
<!-- Generator: Adobe Illustrator 21.0.0, SVG Export Plug-In . SVG Version: 6.00 Build 0)  -->
<svg version="1.1" id="Layer_1" xmlns="http://www.w3.org/2000/svg" xmlns:xlink="http://www.w3.org/1999/xlink" x="0px" y="0px"
	 viewBox="0 0 61 55" style="enable-background:new 0 0 61 55;" xml:space="preserve">
<style type="text/css">
	.st0{fill:none;stroke:#000000;stroke-width:2;stroke-linecap:round;stroke-linejoin:round;stroke-miterlimit:10;}
	.st1{fill:#FFFFFF;stroke:#2F2F90;stroke-width:2;stroke-miterlimit:10;}
	.st2{fill:#E9EAEB;stroke:#2F2F90;stroke-width:2;stroke-miterlimit:10;}
	.st3{fill:#FFFFFF;}
	.st4{fill:none;stroke:#2F2F90;stroke-width:2;stroke-miterlimit:10;}
	.st5{fill:#68C4EE;stroke:#2F2F90;stroke-width:2;stroke-miterlimit:10;}
	.st6{fill:none;stroke:#BCC0C4;stroke-width:2;stroke-miterlimit:10;}
	.st7{fill:#E9EAEB;}
	.st8{fill:#68C4EE;}
	.st9{fill:none;stroke:#2F2F90;stroke-width:2;stroke-linejoin:round;stroke-miterlimit:10;}
	.st10{fill:#FFFFFF;stroke:#2F2F90;stroke-width:2;stroke-linejoin:round;stroke-miterlimit:10;}
	.st11{fill:#E9EAEB;stroke:#2F2F90;stroke-width:2;stroke-linejoin:round;stroke-miterlimit:10;}
	.st12{fill:none;}
	.st13{fill:#2F2F90;}
	.st14{fill:none;stroke:#2F2F90;stroke-width:2;stroke-linecap:round;stroke-linejoin:round;stroke-miterlimit:10;}
	.st15{fill:none;stroke:#2F2F90;stroke-width:2;stroke-linecap:round;stroke-miterlimit:10;}
	.st16{fill:#68C4EE;stroke:#2F2F90;stroke-width:2;stroke-linecap:round;stroke-miterlimit:10;}
	.st17{fill:none;stroke:#000000;stroke-width:3;stroke-miterlimit:10;}
</style>
<g>
	<circle class="st7" cx="31.5" cy="27.5" r="27.5"/>
	<path class="st8" d="M57,20H46v13c0,1.7-1.3,3-3,3H26v6c0,1.7,1.3,3,3,3h18.1l5.1,7.6c0.6,0.8,1.8,0.4,1.8-0.6V45h3
		c1.7,0,3-1.3,3-3V23C60,21.3,58.7,20,57,20z"/>
	<path class="st4" d="M47,20h10c1.7,0,3,1.3,3,3v19c0,1.7-1.3,3-3,3h-3v7.1c0,1-1.3,1.4-1.8,0.6L47.1,45H29c-1.7,0-3-1.3-3-3v-6"/>
	<path class="st1" d="M1,10v23c0,1.7,1.3,3,3,3h4v10.8c0,0.9,1.2,1.4,1.8,0.6L19.2,36H43c1.7,0,3-1.3,3-3V10c0-1.7-1.3-3-3-3H4
		C2.3,7,1,8.3,1,10z"/>
	<path class="st4" d="M43,20H29c-1.7,0-3,1.3-3,3v10"/>
</g>
</svg>
